<?xml version="1.0" encoding="utf-8"?>
<svg version="1.1" id="Main" xmlns="http://www.w3.org/2000/svg" xmlns:xlink="http://www.w3.org/1999/xlink" x="0px" y="0px"
	 width="205px" height="50px" viewBox="0 0 205 50" enable-background="new 0 0 205 50" xml:space="preserve">
<g id="SRLogo">
	<polygon fill="#D8D8D8" points="19,32.9 15.9,42.4 12.7,32.9 11.9,32.9 15.3,43 16.4,43 19.8,32.9 	"/>
	<path fill="#D8D8D8" d="M45.8,32.9v1.5c-0.7-1-1.8-1.6-3.1-1.6h-0.2c-1.6,0-3,1-3.5,2.5c-0.1,0.4-0.3,1-0.3,2.7
		c0,1.7,0.2,2.4,0.3,2.7c0.5,1.5,1.9,2.5,3.5,2.5h0.2c1.2,0,2.4-0.6,3.1-1.6c0,1-0.1,1.6-0.2,2c-0.4,1.2-1.6,2-2.8,2h-0.2
		c-1.1,0-2.2-0.5-2.7-1.3h-0.8c0.6,1.2,2,2,3.6,2h0.2c1.6,0,3-1,3.5-2.5c0.1-0.3,0.3-1,0.3-2.7v-8.2H45.8z M45.6,40.4
		c-0.4,1.2-1.6,2-2.8,2h-0.2c-1.3,0-2.4-0.8-2.8-2c-0.1-0.2-0.2-0.7-0.2-2.5c0-1.6,0.1-2.2,0.2-2.5c0.4-1.2,1.6-2,2.8-2h0.2
		c1.3,0,2.4,0.8,2.8,2c0.1,0.2,0.2,0.7,0.2,2.5C45.8,39.1,45.7,40,45.6,40.4"/>
	<path fill="#D8D8D8" d="M55.1,40.5L55.1,40.5c-0.4,1.1-1.7,1.9-3.1,1.9h-0.2c-1.3,0-2.4-0.8-2.8-2c-0.1-0.2-0.2-0.7-0.2-2.5v-0.1
		h7.1l0-0.4c0-1.4-0.2-2-0.3-2.3c-0.5-1.5-1.9-2.5-3.5-2.5h-0.2c-1.6,0-3,1-3.5,2.5c-0.1,0.4-0.3,1-0.3,2.7c0,1.7,0.2,2.4,0.3,2.7
		c0.5,1.5,1.9,2.5,3.5,2.5h0.2c1.7,0,3.2-1,3.7-2.4l0.1-0.3H55.1z M49,35.5c0.4-1.2,1.6-2,2.8-2h0.2c1.3,0,2.4,0.8,2.8,2
		c0,0.1,0.2,0.5,0.2,1.7h-6.4C48.8,36.1,48.9,35.7,49,35.5"/>
	<path fill="#D8D8D8" d="M27.2,40.5L27.2,40.5c-0.4,1.1-1.7,1.9-3.1,1.9h-0.2c-1.3,0-2.4-0.8-2.8-2c-0.1-0.2-0.2-0.7-0.2-2.5v-0.1
		H28l0-0.4c0-1.4-0.2-2-0.3-2.3c-0.5-1.5-1.9-2.5-3.5-2.5h-0.2c-1.6,0-3,1-3.5,2.5c-0.1,0.4-0.3,1-0.3,2.7c0,1.7,0.2,2.4,0.3,2.7
		c0.5,1.5,1.9,2.5,3.5,2.5h0.2c1.7,0,3.2-1,3.7-2.4l0.1-0.3H27.2z M21.1,35.5c0.4-1.2,1.6-2,2.8-2h0.2c1.3,0,2.4,0.8,2.8,2
		c0,0.1,0.2,0.5,0.2,1.7h-6.4C20.9,36.1,21,35.7,21.1,35.5"/>
	<path fill="#D8D8D8" d="M7.9,37.2c-1.8,0-2.8-0.6-2.8-1.8c0-0.8,0.3-1.9,2.6-1.9H8c2.1,0,2.5,0.9,2.6,1.7h0.7
		c-0.1-1.2-0.7-2.4-3.3-2.4H7.7c-2.7,0-3.3,1.4-3.3,2.6c0,0.9,0.5,2.5,3.5,2.5c2.7,0,3,1.2,3,2.3c0,1.4-1,2.2-2.9,2.2H7.6
		c-1.9,0-2.9-0.7-2.9-2.2H4c0,1.9,1.3,2.9,3.6,2.9h0.5c2.3,0,3.6-1,3.6-2.9C11.6,38.2,10.4,37.2,7.9,37.2"/>
	<polygon fill="#D8D8D8" points="36.9,30.4 36.9,31.7 36.2,31.7 36.2,29.7 36.5,29.7 36.9,29.7"/>
	<polygon fill="#D8D8D8" points="36.9,34.2 36.9,32.9 36.5,32.9 36.2,32.9 36.2,43 36.9,43"/>
	<polygon fill="#D8D8D8" points="94.5,31 94.5,31.7 94.1,31.7 93.8,31.7 93.8,29.7 94.5,29.7"/>
	<polygon fill="#D8D8D8" points="94.5,34.5 94.5,32.9 94.1,32.9 93.8,32.9 93.8,43 94.5,43"/>
	<path fill="#D8D8D8" d="M34.6,32.9c-0.3-0.1-0.6-0.1-0.9-0.1h-0.2c-1.2,0-2.4,0.6-3.1,1.6v-1.5h-0.7V43h0.7v-5.2
		c0-1.5,0.1-2,0.2-2.3c0.4-1.2,1.6-2,2.8-2h0.2c0.3,0,0.6,0.1,0.9,0.1V32.9z"/>
	<path fill="#D8D8D8" d="M100.2,43.1H100c-1.6,0-3-1-3.5-2.5c-0.1-0.3-0.3-1-0.3-2.7c0-1.7,0.2-2.3,0.3-2.7c0.5-1.5,1.9-2.5,3.5-2.5
		h0.2c1.6,0,3,1,3.5,2.5c0.1,0.4,0.3,1,0.3,2.7c0,1.7-0.2,2.4-0.3,2.7C103.2,42.1,101.8,43.1,100.2,43.1 M100,33.5
		c-1.3,0-2.4,0.8-2.8,2c-0.1,0.3-0.2,0.9-0.2,2.5c0,1.8,0.2,2.3,0.2,2.5c0.4,1.2,1.6,2,2.8,2h0.2c1.3,0,2.4-0.8,2.8-2
		c0.2-0.5,0.2-1.3,0.2-2.5c0-1.8-0.2-2.3-0.2-2.5c-0.4-1.2-1.6-2-2.8-2H100z"/>
	<path fill="#D8D8D8" d="M91.1,43h0.7V29.7h-0.7v4.6c-0.7-1-1.8-1.6-3.1-1.6h-0.2c-1.6,0-3,1-3.5,2.5c-0.1,0.4-0.3,1-0.3,2.7
		c0,1.7,0.2,2.4,0.3,2.7c0.5,1.5,1.9,2.5,3.5,2.5h0.2c1.2,0,2.4-0.6,3.1-1.6V43z M90.9,40.4c-0.4,1.2-1.6,2-2.8,2h-0.2
		c-1.3,0-2.4-0.8-2.8-2c-0.1-0.2-0.2-0.7-0.2-2.5c0-1.6,0.1-2.2,0.2-2.5c0.4-1.2,1.6-2,2.8-2h0.2c1.3,0,2.4,0.8,2.8,2
		c0.1,0.2,0.2,0.7,0.2,2.5C91.1,39.1,91.1,39.9,90.9,40.4"/>
	<path fill="#D8D8D8" d="M82.5,35.6c0-1.8-1.2-2.9-3.3-2.9h-0.3c-2.2,0-3.4,0.9-3.5,2.4h0.7c0.1-1.4,1.6-1.7,2.8-1.7h0.3
		c1,0,2.6,0.3,2.6,2.1l0,1.5h-3.1c-2.6,0-3.8,0.9-3.8,2.9v0.1c0,1.9,1.3,2.9,3.6,2.9l0.3,0c1.2,0,2.4-0.6,3.1-1.6l0,1.5h0.7
		L82.5,35.6z M81.8,37.9L81.8,37.9c0,1.2-0.1,2-0.2,2.5c-0.4,1.2-1.6,2-2.8,2l-0.3,0c-1.9,0-2.9-0.7-2.9-2.2v-0.1
		c0-1.2,0.4-2.2,3.1-2.2L81.8,37.9L81.8,37.9z"/>
	<path fill="#D8D8D8" d="M71,35.4c0-2.6-2.5-2.4-3.3-2.6h3.6c1,0,2.7,0.7,2.7,2.6s-1.3,2.6-2.3,2.6H70C70,37.9,71,37.9,71,35.4z"/>
	<polygon fill="#D8D8D8" points="57.3,43 61.7,43 57.3,38.4"/>
	<polygon fill="#D8D8D8" points="61.9,32.8 66,37.8 66,32.8"/>
	<polygon fill="#D8D8D8" points="69.8,37.9 66.2,37.9 70.4,43 74.3,43"/>
	<path fill="#D8D8D8" d="M60.3,35.4c0,1.9,0.6,2.4,1.4,2.6h-2.2c-1,0-2.3-0.7-2.3-2.6c0-1.9,1.3-2.6,2.3-2.6h2.2
		C60.9,33,60.3,33.4,60.3,35.4z"/>
	<path fill="#D8D8D8" d="M63.3,40.4c0-1.9-0.6-2.4-1.4-2.5h2.2c1,0,2.3,0.7,2.3,2.5c0,1.8-1.3,2.5-2.3,2.5h-2.2
		C62.7,42.8,63.3,42.3,63.3,40.4z"/>
</g>
<g id="CodecCallMonitor">
	<path fill="#FFFFFF" d="M15.8,8.9C15.1,8,14,7.5,12.6,7.5c-2.8,0-4.9,2.3-4.9,5.5c0,3.2,2.1,5.5,4.8,5.5c1.5,0,2.7-0.7,3.5-1.8
		l3.1,2.3c-1.4,2-3.8,3-6.1,3c-5.3,0-9.2-3.5-9.2-8.9c0-5.4,3.9-8.9,9.2-8.9c1.9,0,4.3,0.6,5.7,2.5L15.8,8.9z"/>
	<path fill="#FFFFFF" d="M25.6,9.5c3.6,0,6.5,2.4,6.5,6.1c0,3.7-2.9,6.1-6.5,6.1c-3.6,0-6.5-2.4-6.5-6.1C19.1,11.9,22,9.5,25.6,9.5z
		 M25.6,18.6c1.8,0,2.9-1.2,2.9-3c0-1.8-1.1-3-2.9-3c-1.8,0-2.9,1.2-2.9,3C22.7,17.4,23.8,18.6,25.6,18.6z"/>
	<path fill="#FFFFFF" d="M45.2,21.5h-3.3v-1.5h0c-0.6,0.8-1.9,1.8-3.6,1.8c-3.5,0-5.7-2.5-5.7-6c0-3.2,2-6.2,5.3-6.2
		c1.5,0,2.9,0.4,3.7,1.5h0V3.3h3.6V21.5z M39,12.7c-1.8,0-2.9,1.2-2.9,3c0,1.8,1.1,3,2.9,3c1.8,0,2.9-1.2,2.9-3
		C41.9,13.9,40.8,12.7,39,12.7z"/>
	<path fill="#FFFFFF" d="M58,19.5c-1.2,1.5-3,2.3-4.9,2.3c-3.6,0-6.5-2.4-6.5-6.1c0-3.7,2.9-6.1,6.5-6.1c3.4,0,5.5,2.4,5.5,6.1v1.1
		h-8.4c0.3,1.4,1.3,2.3,2.7,2.3c1.2,0,2-0.6,2.6-1.4L58,19.5z M54.9,14.3c0-1.2-0.9-2.2-2.2-2.2c-1.6,0-2.4,1.1-2.5,2.2H54.9z"/>
	<path fill="#FFFFFF" d="M67.4,13.6c-0.4-0.5-1-0.9-1.8-0.9c-1.8,0-2.9,1.2-2.9,3c0,1.8,1.1,3,2.9,3c0.8,0,1.4-0.4,1.8-0.9l2.4,2.5
		c-1.1,1.2-2.8,1.6-4.2,1.6c-3.6,0-6.5-2.4-6.5-6.1c0-3.7,2.9-6.1,6.5-6.1c1.4,0,3,0.4,4.2,1.6L67.4,13.6z"/>
	<path fill="#FFFFFF" d="M87.4,8.9c-0.7-0.9-1.8-1.4-3.2-1.4c-2.8,0-4.9,2.3-4.9,5.5c0,3.2,2.1,5.5,4.8,5.5c1.5,0,2.7-0.7,3.5-1.8
		l3.1,2.3c-1.4,2-3.8,3-6.1,3c-5.3,0-9.2-3.5-9.2-8.9c0-5.4,3.9-8.9,9.2-8.9c1.9,0,4.3,0.6,5.7,2.5L87.4,8.9z"/>
	<path fill="#FFFFFF" d="M98.4,20L98.4,20c-0.8,1.2-2.3,1.8-3.7,1.8c-2.2,0-4.2-1.2-4.2-3.6c0-4,4.9-4.1,7.9-4.1
		c0-1.3-1.1-2.1-2.3-2.1c-1.2,0-2.2,0.5-2.9,1.4l-1.9-2c1.3-1.2,3.2-1.9,5.1-1.9c4.2,0,5.3,2.1,5.3,6v5.9h-3.3V20z M97.6,16.4
		c-1.1,0-3.6,0.1-3.6,1.7c0,0.9,0.9,1.3,1.7,1.3c1.4,0,2.7-0.7,2.7-2.2v-0.8H97.6z"/>
	<path fill="#FFFFFF" d="M102.9,3.3h3.6v18.1h-3.6V3.3z"/>
	<path fill="#FFFFFF" d="M108,3.3h3.6v18.1H108V3.3z"/>
	<path fill="#FFFFFF" d="M119.4,4.5h5.7l3.9,11.1h0l3.9-11.1h5.6v17h-3.7v-13h0l-4.5,13h-2.9l-4.3-13h0v13h-3.7V4.5z"/>
	<path fill="#FFFFFF" d="M146.4,9.5c3.6,0,6.5,2.4,6.5,6.1c0,3.7-2.9,6.1-6.5,6.1c-3.6,0-6.5-2.4-6.5-6.1
		C139.9,11.9,142.8,9.5,146.4,9.5z M146.4,18.6c1.8,0,2.9-1.2,2.9-3c0-1.8-1.1-3-2.9-3c-1.8,0-2.9,1.2-2.9,3
		C143.5,17.4,144.6,18.6,146.4,18.6z"/>
	<path fill="#FFFFFF" d="M153.8,9.8h3.5v1.6h0c0.5-0.9,1.7-1.9,3.4-1.9c3.6,0,4.3,2.4,4.3,5.5v6.4h-3.6v-5.7c0-1.3,0-3.1-1.9-3.1
		c-1.9,0-2.2,1.5-2.2,3v5.8h-3.6V9.8z"/>
	<path fill="#FFFFFF" d="M168.3,4.1c1.2,0,2.1,0.9,2.1,2.1c0,1.2-0.9,2.1-2.1,2.1s-2.1-0.9-2.1-2.1C166.2,5,167.1,4.1,168.3,4.1z
		 M166.5,9.8h3.6v11.7h-3.6V9.8z"/>
	<path fill="#FFFFFF" d="M179.4,12.7h-3.2v3.9c0,1.2,0.1,2.2,1.7,2.2c0.4,0,1.2,0,1.5-0.3v3c-0.8,0.3-1.7,0.4-2.5,0.4
		c-2.4,0-4.2-1-4.2-3.5v-5.5h-2.3V9.8h2.3V6.4h3.6v3.5h3.2V12.7z"/>
	<path fill="#FFFFFF" d="M186.1,9.5c3.6,0,6.5,2.4,6.5,6.1c0,3.7-2.9,6.1-6.5,6.1c-3.6,0-6.5-2.4-6.5-6.1
		C179.7,11.9,182.5,9.5,186.1,9.5z M186.1,18.6c1.8,0,2.9-1.2,2.9-3c0-1.8-1.1-3-2.9-3c-1.8,0-2.9,1.2-2.9,3
		C183.3,17.4,184.3,18.6,186.1,18.6z"/>
	<path fill="#FFFFFF" d="M193.6,9.8h3.6v1.9h0c0.8-1.4,1.8-2.2,3.4-2.2c0.4,0,0.9,0,1.2,0.1v3.3c-0.5-0.1-1-0.2-1.5-0.2
		c-2.7,0-3.1,1.6-3.1,3.9v4.9h-3.6V9.8z"/>
</g>
<g id="UCCM">
	<path fill="#222223" d="M135,32.9c-0.7-0.9-1.8-1.4-3.2-1.4c-2.8,0-4.9,2.3-4.9,5.5c0,3.2,2.1,5.5,4.8,5.5c1.5,0,2.7-0.7,3.5-1.8
		l3.1,2.3c-1.4,2-3.8,3-6.1,3c-5.3,0-9.2-3.5-9.2-8.9c0-5.4,3.9-8.9,9.2-8.9c1.9,0,4.3,0.6,5.7,2.5L135,32.9z"/>
	<path fill="#222223" d="M150.3,32.9c-0.7-0.9-1.8-1.4-3.2-1.4c-2.8,0-4.9,2.3-4.9,5.5c0,3.2,2.1,5.5,4.8,5.5c1.5,0,2.7-0.7,3.5-1.8
		l3.1,2.3c-1.4,2-3.8,3-6.1,3c-5.3,0-9.2-3.5-9.2-8.9c0-5.4,3.9-8.9,9.2-8.9c1.9,0,4.3,0.6,5.7,2.5L150.3,32.9z"/>
	<path fill="#222223" d="M154.4,28.5h5.7l3.9,11.1h0l3.9-11.1h5.6v17h-3.7v-13h0l-4.5,13h-2.9l-4.3-13h0v13h-3.7V28.5z"/>
</g>
</svg>
