<svg id="CodecControl" xmlns="http://www.w3.org/2000/svg" width="205" height="50" viewBox="0 0 205 50"><title>CodecControl-logo-green</title><polygon points="19.02 32.9 15.87 42.38 12.71 32.9 11.95 32.9 15.3 42.97 16.44 42.97 19.79 32.9 19.02 32.9" fill="#d8d8d8"/><path d="M45.8,32.9v1.46a3.73,3.73,0,0,0-3.07-1.61h-.25A3.73,3.73,0,0,0,39,35.22a8.12,8.12,0,0,0-.29,2.72A8.22,8.22,0,0,0,39,40.66a3.72,3.72,0,0,0,3.51,2.47h.25a3.73,3.73,0,0,0,3.07-1.61,7.15,7.15,0,0,1-.24,2,3,3,0,0,1-2.83,2h-.25a3.42,3.42,0,0,1-2.74-1.3h-.85a4,4,0,0,0,3.59,2h.25a3.72,3.72,0,0,0,3.51-2.47,8.21,8.21,0,0,0,.29-2.72V32.9Zm-.24,7.52a3,3,0,0,1-2.83,2h-.25a3,3,0,0,1-2.83-2,7.32,7.32,0,0,1-.24-2.48,7.59,7.59,0,0,1,.24-2.47,3,3,0,0,1,2.83-2h.25a3,3,0,0,1,2.83,2,7.31,7.31,0,0,1,.24,2.47,8.42,8.42,0,0,1-.24,2.48" fill="#d8d8d8"/><path d="M55.12,40.48l0,0a3.21,3.21,0,0,1-3,1.88h-.25a3,3,0,0,1-2.83-2,7.31,7.31,0,0,1-.24-2.48v-.05h7.12v-.37a7.16,7.16,0,0,0-.28-2.3,3.72,3.72,0,0,0-3.51-2.47h-.25a3.72,3.72,0,0,0-3.51,2.47A8.12,8.12,0,0,0,48,37.94a8.21,8.21,0,0,0,.29,2.72,3.72,3.72,0,0,0,3.51,2.47h.25a3.9,3.9,0,0,0,3.73-2.36l.1-.29Zm-6.14-5a3,3,0,0,1,2.83-2h.25a3,3,0,0,1,2.83,2,5.47,5.47,0,0,1,.23,1.7H48.75a5.65,5.65,0,0,1,.23-1.7" fill="#d8d8d8"/><path d="M27.22,40.48l0,0a3.21,3.21,0,0,1-3,1.88h-.25a3,3,0,0,1-2.83-2,7.32,7.32,0,0,1-.24-2.48v-.05H28v-.37a7.16,7.16,0,0,0-.28-2.3,3.72,3.72,0,0,0-3.51-2.47h-.25a3.72,3.72,0,0,0-3.51,2.47,8.13,8.13,0,0,0-.29,2.72,8.22,8.22,0,0,0,.29,2.72,3.72,3.72,0,0,0,3.51,2.47h.25a3.9,3.9,0,0,0,3.73-2.36l.1-.29Zm-6.14-5a3,3,0,0,1,2.83-2h.25a3,3,0,0,1,2.83,2,5.47,5.47,0,0,1,.23,1.7H20.85a5.65,5.65,0,0,1,.23-1.7" fill="#d8d8d8"/><path d="M7.87,37.17c-1.84,0-2.78-.6-2.78-1.78,0-.82.27-1.92,2.58-1.92H8c2.12,0,2.52.92,2.58,1.7h.73C11.2,34,10.54,32.75,8,32.75h-.3c-2.74,0-3.31,1.44-3.31,2.64,0,.94.46,2.51,3.5,2.51,2.69,0,3,1.17,3,2.32,0,1.45-1,2.18-2.85,2.18H7.58c-1.89,0-2.85-.73-2.85-2.18H4c0,1.88,1.27,2.91,3.58,2.91h.49c2.31,0,3.58-1,3.58-2.91,0-2.05-1.23-3-3.77-3" fill="#d8d8d8"/><polygon points="36.88 30.41 36.88 31.67 36.15 31.67 36.15 29.73 36.54 29.73 36.88 29.73 36.88 30.41" fill="#d8d8d8"/><polygon points="36.88 34.16 36.88 32.89 36.5 32.89 36.15 32.89 36.15 42.97 36.88 42.97 36.88 34.16" fill="#d8d8d8"/><polygon points="94.5 30.98 94.5 31.67 94.15 31.67 93.78 31.67 93.78 29.73 94.5 29.73 94.5 30.98" fill="#d8d8d8"/><polygon points="94.5 34.47 94.5 32.89 94.15 32.89 93.78 32.89 93.78 42.97 94.5 42.97 94.5 34.47" fill="#d8d8d8"/><path d="M34.57,32.86a3.75,3.75,0,0,0-.93-.12h-.25a3.73,3.73,0,0,0-3.07,1.61V32.89h-.73V43h.73V37.76a7.18,7.18,0,0,1,.24-2.3,3,3,0,0,1,2.82-2h.25a3,3,0,0,1,.93.15Z" fill="#d8d8d8"/><path d="M100.21,43.13H100a3.72,3.72,0,0,1-3.51-2.47,8.23,8.23,0,0,1-.29-2.72,8.11,8.11,0,0,1,.29-2.72A3.72,3.72,0,0,1,100,32.74h.25a3.72,3.72,0,0,1,3.51,2.47,8.13,8.13,0,0,1,.29,2.72,8.22,8.22,0,0,1-.29,2.72,3.72,3.72,0,0,1-3.51,2.47M100,33.47a3,3,0,0,0-2.82,2,7.6,7.6,0,0,0-.24,2.47,7.33,7.33,0,0,0,.24,2.48,3,3,0,0,0,2.82,2h.25a3,3,0,0,0,2.83-2,8.43,8.43,0,0,0,.24-2.48,7.33,7.33,0,0,0-.24-2.47,3,3,0,0,0-2.83-2Z" fill="#d8d8d8"/><path d="M91.14,43h.73V29.72h-.73v4.63a3.73,3.73,0,0,0-3.07-1.62h-.25a3.72,3.72,0,0,0-3.51,2.47A8.1,8.1,0,0,0,84,37.93a8.19,8.19,0,0,0,.29,2.72,3.72,3.72,0,0,0,3.51,2.47h.25a3.73,3.73,0,0,0,3.07-1.62Zm-.25-2.56a3,3,0,0,1-2.82,2h-.25a3,3,0,0,1-2.82-2,7.31,7.31,0,0,1-.24-2.48A7.58,7.58,0,0,1,85,35.46a3,3,0,0,1,2.82-2h.25a3,3,0,0,1,2.82,2,7.3,7.3,0,0,1,.24,2.47,8.42,8.42,0,0,1-.24,2.48" fill="#d8d8d8"/><path d="M82.54,35.6c0-1.8-1.24-2.87-3.32-2.87h-.3c-2.15,0-3.42.88-3.53,2.43h.73c.13-1.4,1.58-1.71,2.8-1.71h.3c1,0,2.59.28,2.59,2.15v1.55H78.67c-2.58,0-3.78.94-3.78,2.95v.11c0,1.88,1.27,2.92,3.59,2.92h.29a3.73,3.73,0,0,0,3.05-1.62V43h.73Zm-.73,2.32h0a8.41,8.41,0,0,1-.24,2.48,3,3,0,0,1-2.83,2h-.27c-1.9,0-2.86-.74-2.86-2.19v-.11c0-1.15.37-2.22,3.06-2.22h3.15Z" fill="#d8d8d8"/><path d="M71,35.37c0-2.55-2.51-2.4-3.29-2.55h3.62a2.6,2.6,0,0,1,2.71,2.55,2.33,2.33,0,0,1-2.35,2.55H70S71,37.93,71,35.37Z" fill="#d8d8d8"/><polygon points="57.31 42.97 61.65 42.97 57.31 38.44 57.31 42.97" fill="#d8d8d8"/><polygon points="61.89 32.82 66.02 37.76 66.02 32.82 61.89 32.82" fill="#d8d8d8"/><polygon points="69.85 37.92 66.16 37.92 70.38 42.97 74.32 42.97 69.85 37.92" fill="#d8d8d8"/><path d="M60.26,35.37c0,1.92.62,2.4,1.39,2.55H59.48a2.32,2.32,0,0,1-2.32-2.55,2.32,2.32,0,0,1,2.32-2.55h2.18C60.88,33,60.26,33.45,60.26,35.37Z" fill="#d8d8d8"/><path d="M63.28,40.45c0-1.9-.63-2.37-1.4-2.52h2.2a2.31,2.31,0,0,1,2.35,2.52A2.31,2.31,0,0,1,64.07,43h-2.2C62.65,42.82,63.28,42.35,63.28,40.45Z" fill="#d8d8d8"/><path d="M15.84,8.9a4,4,0,0,0-3.22-1.39C9.79,7.51,7.7,9.81,7.7,13s2.09,5.47,4.8,5.47A4.06,4.06,0,0,0,16,16.63L19.13,19a7.42,7.42,0,0,1-6.14,3c-5.3,0-9.17-3.48-9.17-8.93S7.68,4.05,13,4.05a7.3,7.3,0,0,1,5.74,2.5Z" fill="#00a19a"/><path d="M25.58,9.52c3.6,0,6.48,2.4,6.48,6.12s-2.88,6.12-6.48,6.12-6.48-2.4-6.48-6.12S22,9.52,25.58,9.52Zm0,9.07a2.73,2.73,0,0,0,2.88-3,2.73,2.73,0,0,0-2.88-3,2.73,2.73,0,0,0-2.88,3A2.73,2.73,0,0,0,25.58,18.6Z" fill="#00a19a"/><path d="M45.24,21.48H41.93V19.94h0a4.52,4.52,0,0,1-3.58,1.82c-3.46,0-5.74-2.5-5.74-6,0-3.24,2-6.22,5.33-6.22a4.35,4.35,0,0,1,3.7,1.54h0V3.33h3.6ZM39,12.69a2.73,2.73,0,0,0-2.88,3,2.88,2.88,0,1,0,5.76,0A2.73,2.73,0,0,0,39,12.69Z" fill="#00a19a"/><path d="M58,19.46a6.34,6.34,0,0,1-4.92,2.3c-3.6,0-6.48-2.4-6.48-6.12s2.88-6.12,6.48-6.12c3.36,0,5.47,2.4,5.47,6.12v1.13H50.18A2.69,2.69,0,0,0,52.9,19a3.07,3.07,0,0,0,2.57-1.42Zm-3-5.14a2.16,2.16,0,0,0-2.21-2.21,2.4,2.4,0,0,0-2.54,2.21Z" fill="#00a19a"/><path d="M67.44,13.58a2.23,2.23,0,0,0-1.78-.89,2.73,2.73,0,0,0-2.88,3,2.73,2.73,0,0,0,2.88,3,2.29,2.29,0,0,0,1.78-.89l2.38,2.5a5.85,5.85,0,0,1-4.15,1.56c-3.6,0-6.48-2.4-6.48-6.12s2.88-6.12,6.48-6.12a5.85,5.85,0,0,1,4.15,1.56Z" fill="#00a19a"/><path d="M87.43,8.9a4,4,0,0,0-3.22-1.39c-2.83,0-4.92,2.3-4.92,5.47s2.09,5.47,4.8,5.47a4.06,4.06,0,0,0,3.5-1.82L90.72,19a7.42,7.42,0,0,1-6.14,3c-5.3,0-9.17-3.48-9.17-8.93s3.86-8.93,9.17-8.93a7.3,7.3,0,0,1,5.74,2.5Z" fill="#00a19a"/><path d="M97.18,9.52c3.6,0,6.48,2.4,6.48,6.12s-2.88,6.12-6.48,6.12-6.48-2.4-6.48-6.12S93.58,9.52,97.18,9.52Zm0,9.07a2.73,2.73,0,0,0,2.88-3,2.88,2.88,0,1,0-5.76,0A2.73,2.73,0,0,0,97.18,18.6Z" fill="#00a19a"/><path d="M104.59,9.81H108V11.4h0a3.78,3.78,0,0,1,3.41-1.87c3.65,0,4.32,2.4,4.32,5.52v6.43h-3.6V15.76c0-1.34,0-3.07-1.87-3.07s-2.16,1.46-2.16,3v5.81h-3.6Z" fill="#00a19a"/><path d="M125.14,12.69H122v3.89c0,1.25.14,2.16,1.7,2.16a2.59,2.59,0,0,0,1.46-.34v3a7.45,7.45,0,0,1-2.52.36c-2.4,0-4.25-1-4.25-3.53V12.69h-2.3V9.81h2.3V6.36H122V9.81h3.17Z" fill="#00a19a"/><path d="M125.78,9.81h3.6v1.87h0a3.56,3.56,0,0,1,3.36-2.16,4.75,4.75,0,0,1,1.2.12v3.29a5.56,5.56,0,0,0-1.54-.24c-2.74,0-3.07,1.58-3.07,3.91v4.87h-3.6Z" fill="#00a19a"/><path d="M140,9.52c3.6,0,6.48,2.4,6.48,6.12s-2.88,6.12-6.48,6.12-6.48-2.4-6.48-6.12S136.39,9.52,140,9.52Zm0,9.07a2.73,2.73,0,0,0,2.88-3,2.88,2.88,0,1,0-5.76,0A2.73,2.73,0,0,0,140,18.6Z" fill="#00a19a"/><path d="M147.45,3.33h3.6V21.48h-3.6Z" fill="#00a19a"/></svg>