<?xml version="1.0" encoding="utf-8"?>
<svg version="1.1" xmlns="http://www.w3.org/2000/svg" xmlns:xlink="http://www.w3.org/1999/xlink" x="0px" y="0px" width="130px" height="50px" viewBox="0 0 130 50" enable-background="new 0 0 130 50" xml:space="preserve">
	<g>
		<path fill="#383838" d="M65,44c-10.5,0-19-8.5-19-19S54.5,6,65,6c6.4,0,12.3,3.2,15.8,8.5l-6.7,4.4C72.1,15.8,68.7,14,65,14c-6.1,0-11,4.9-11,11s4.9,11,11,11c3.7,0,7.1-1.8,9.2-4.9l6.7,4.4C77.3,40.8,71.4,44,65,44z"/>
		<path fill="#383838" d="M25,44C14.5,44,6,35.5,6,25S14.5,6,25,6c6.4,0,12.3,3.2,15.8,8.5l-6.7,4.4C32.1,15.8,28.7,14,25,14c-6.1,0-11,4.9-11,11s4.9,11,11,11c3.7,0,7.1-1.8,9.2-4.9l6.7,4.4C37.3,40.8,31.4,44,25,44z"/>
		<polygon fill="#383838" points="124,44 116,44 116,15.7 105,32.2 94,15.7 94,44 86,44 86,6 97.1,6 105,17.8 112.9,6 124,6"/>
	</g>
</svg>
